<svg xmlns="http://www.w3.org/2000/svg" viewBox="0 0 841.9 595.3">
  <symbol id="play-btn" viewBox="0 0 512 512">
    <path d="M256,0C114.609,0,0,114.609,0,256c0,141.391,114.609,256,256,256c141.391,0,256-114.609,256-256
		C512,114.609,397.391,0,256,0z M256,472c-119.297,0-216-96.703-216-216S136.703,40,256,40s216,96.703,216,216S375.297,472,256,472z
		" />
    <path d="M353.661,237.879l-154.174-89.594c-16.844-9.969-32.987-1.938-32.987,17.844v179.766c0,19.75,16.143,27.797,32.987,17.812
		l152.956-89.578C369.348,264.16,370.552,247.848,353.661,237.879z" />
  </symbol>
  <symbol id="vk-social" viewBox="0 0 1200 1200">
    <path d="M0,0v1200h1200V0H0z M532.69,320.874  c33.977-0.352,67.21,3.415,83.423,3.882c60.1,1.73,70.714,32.127,69.946,57.129c-1.124,36.617-24.683,191.51,18.97,206.616  c63.61-34.014,106.265-139.659,137.329-206.616c15.713-33.868,13.229-35.551,49.438-35.596l143.848-0.22  c34.64-0.043,33.289-1.257,44.385,12.891c25.81,32.908-81.447,169.794-116.089,207.642c-63.929,69.846-26.63,96.894-16.333,106.494  c47.709,44.483,93.809,90.611,122.461,133.154c22.779,33.822,13.371,65.313-15.601,66.504l-154.248,6.372  c-51.186,2.104-130.777-89.652-143.481-109.644c-10.274-16.49-59.789-37.157-64.453,4.98l-6.519,58.813  c-4.735,42.041-35.776,41.06-60.278,42.114c-169.669,7.301-227.45-57.297-312.891-152.637  c-62.621-88.56-122.38-177.629-171.899-284.326c-14.822-31.938-22.673-55.367-24.683-80.2  c24.916-19.474,112.373-11.086,171.094-12.378c16.061-0.354,26.898,8.848,35.376,27.173  c33.081,71.512,69.159,141.739,116.895,203.833c20.789,19.148,39.167,26.189,48.34-12.744c5.326-0.49,4.898-64.963,5.2-113.599  c0.207-33.394-3.716-73.442-60.278-91.919C444.082,328.601,489.006,321.327,532.69,320.874z" />
  </symbol>
  <symbol id="inst-social" viewBox="0 0 32 32">
    <path d="M16 0c-4.349 0-4.891 0.021-6.593 0.093-1.709 0.084-2.865 0.349-3.885 0.745-1.052 0.412-1.948 0.959-2.833 1.849-0.891 0.885-1.443 1.781-1.849 2.833-0.396 1.020-0.661 2.176-0.745 3.885-0.077 1.703-0.093 2.244-0.093 6.593s0.021 4.891 0.093 6.593c0.084 1.704 0.349 2.865 0.745 3.885 0.412 1.052 0.959 1.948 1.849 2.833 0.885 0.891 1.781 1.443 2.833 1.849 1.020 0.391 2.181 0.661 3.885 0.745 1.703 0.077 2.244 0.093 6.593 0.093s4.891-0.021 6.593-0.093c1.704-0.084 2.865-0.355 3.885-0.745 1.052-0.412 1.948-0.959 2.833-1.849 0.891-0.885 1.443-1.776 1.849-2.833 0.391-1.020 0.661-2.181 0.745-3.885 0.077-1.703 0.093-2.244 0.093-6.593s-0.021-4.891-0.093-6.593c-0.084-1.704-0.355-2.871-0.745-3.885-0.412-1.052-0.959-1.948-1.849-2.833-0.885-0.891-1.776-1.443-2.833-1.849-1.020-0.396-2.181-0.661-3.885-0.745-1.703-0.077-2.244-0.093-6.593-0.093zM16 2.88c4.271 0 4.781 0.021 6.469 0.093 1.557 0.073 2.405 0.333 2.968 0.553 0.751 0.291 1.276 0.635 1.844 1.197 0.557 0.557 0.901 1.088 1.192 1.839 0.22 0.563 0.48 1.411 0.553 2.968 0.072 1.688 0.093 2.199 0.093 6.469s-0.021 4.781-0.099 6.469c-0.084 1.557-0.344 2.405-0.563 2.968-0.303 0.751-0.641 1.276-1.199 1.844-0.563 0.557-1.099 0.901-1.844 1.192-0.556 0.22-1.416 0.48-2.979 0.553-1.697 0.072-2.197 0.093-6.479 0.093s-4.781-0.021-6.48-0.099c-1.557-0.084-2.416-0.344-2.979-0.563-0.76-0.303-1.281-0.641-1.839-1.199-0.563-0.563-0.921-1.099-1.197-1.844-0.224-0.556-0.48-1.416-0.563-2.979-0.057-1.677-0.084-2.197-0.084-6.459 0-4.26 0.027-4.781 0.084-6.479 0.083-1.563 0.339-2.421 0.563-2.979 0.276-0.761 0.635-1.281 1.197-1.844 0.557-0.557 1.079-0.917 1.839-1.199 0.563-0.219 1.401-0.479 2.964-0.557 1.697-0.061 2.197-0.083 6.473-0.083zM16 7.787c-4.541 0-8.213 3.677-8.213 8.213 0 4.541 3.677 8.213 8.213 8.213 4.541 0 8.213-3.677 8.213-8.213 0-4.541-3.677-8.213-8.213-8.213zM16 21.333c-2.948 0-5.333-2.385-5.333-5.333s2.385-5.333 5.333-5.333c2.948 0 5.333 2.385 5.333 5.333s-2.385 5.333-5.333 5.333zM26.464 7.459c0 1.063-0.865 1.921-1.923 1.921-1.063 0-1.921-0.859-1.921-1.921 0-1.057 0.864-1.917 1.921-1.917s1.923 0.86 1.923 1.917z" />
  </symbol>
  <symbol id="fb-social" viewBox="0 0 16 16">
    <path d="M0 0v16h16v-16h-16zM12.9 8.4h-2.1v5.6h-2.1v-5.6h-1.5v-2h1.5c0 0 0-0.8 0-1.7 0-1.5 0.9-2.7 2.9-2.7 0.8 0 1.4 0.1 1.4 0.1v1.9c0 0-0.6 0-1.3 0s-0.8 0.3-0.8 0.9c0 0.1 0 0.1 0 0.1 0 0.2 0 0.5 0 1.4h2.1l-0.1 2z" />
  </symbol>
  <symbol id="arrow-prev" viewBox="0 0 16 16">
    <path d="M8,0C3.5,0,0,3.5,0,8s3.5,8,8,8s8-3.5,8-8S12.5,0,8,0z M13,10H7v2L2,8l5-4v2h6V10z" />
  </symbol>
  <symbol id="arrow-next" viewBox="0 0 16 16">
    <path d="M8,0C3.5,0,0,3.5,0,8s3.5,8,8,8s8-3.5,8-8S12.5,0,8,0z M9,12v-2H3V6h6V4l5,4L9,12z" />
  </symbol>
  <symbol id="close" viewBox="0 0 512 512">
    <path d="M437,75C337-25,175-25,75,75S-25,337,75,437s262.07,100,362,0S537,175,437,75ZM351.25,387a5,5,0,0,1-7.07,0L256,298.84,167.82,387a5,5,0,0,1-7.07,0L125,351.25a5,5,0,0,1,0-7.07L213.16,256,125,167.82a5,5,0,0,1,0-7.07L160.75,125a5,5,0,0,1,7.07,0L256,213.16,344.18,125a5,5,0,0,1,7.07,0L387,160.75a5,5,0,0,1,0,7.07L298.84,256,387,344.18a5,5,0,0,1,0,7.07Z" />
  </symbol>
  <symbol id="no-image" viewBox="0 0 512 512">
    <path d="M505.942,476.694L35.306,6.059c-8.076-8.077-21.172-8.077-29.248,0c-8.077,8.076-8.077,21.171,0,29.248l470.636,470.636    c4.038,4.039,9.332,6.058,14.625,6.058c5.293,0,10.587-2.019,14.624-6.057C514.018,497.866,514.018,484.771,505.942,476.694z" />
    <path d="M448.532,427.85H63.467c-12.187,0-22.102-9.915-22.102-22.102V170.43c0-12.188,9.916-22.102,22.102-22.102h64.177    c11.422,0,20.682-9.26,20.682-20.682s-9.26-20.682-20.682-20.682H63.467C28.472,106.963,0,135.434,0,170.43v235.318    c0,34.995,28.472,63.467,63.467,63.467h385.065c11.423,0,20.682-9.259,20.682-20.682S459.955,427.85,448.532,427.85z" />
    <path d="M448.533,106.963h-74.501l-36.644-54.968c-3.837-5.754-10.294-9.211-17.209-9.211H191.823    c-11.422,0-20.682,9.26-20.682,20.682s9.26,20.682,20.682,20.682h117.286l36.644,54.968c3.837,5.754,10.294,9.21,17.209,9.21    h85.57c12.188,0,22.103,9.915,22.103,22.102v199.806c0,11.423,9.259,20.682,20.682,20.682c11.423,0,20.682-9.259,20.683-20.682    V170.43C512.001,135.435,483.53,106.963,448.533,106.963z" />
    <path d="M337.849,309.099c-9.427-6.451-22.296-4.039-28.747,5.388c-20.205,29.528-60.668,37.114-90.196,16.908    c-29.529-20.204-37.113-60.665-16.909-90.194c4.557-6.661,10.246-12.35,16.909-16.909c9.427-6.451,11.839-19.322,5.388-28.748    c-6.451-9.427-19.323-11.839-28.748-5.388c-10.909,7.465-20.224,16.78-27.687,27.687    c-33.085,48.352-20.665,114.606,27.687,147.691c18.309,12.528,39.176,18.529,59.846,18.529c33.916,0,67.287-16.173,87.845-46.216    C349.688,328.421,347.275,315.55,337.849,309.099z" />
  </symbol>
  <symbol id="tmdb-logo" viewBox="0 0 190 81">
    <path class="cls-1" d="M105.67,36.06h66.9A17.67,17.67,0,0,0,190.24,18.4h0A17.67,17.67,0,0,0,172.57.73h-66.9A17.67,17.67,0,0,0,88,18.4h0A17.67,17.67,0,0,0,105.67,36.06Zm-88,45h76.9A17.67,17.67,0,0,0,112.24,63.4h0A17.67,17.67,0,0,0,94.57,45.73H17.67A17.67,17.67,0,0,0,0,63.4H0A17.67,17.67,0,0,0,17.67,81.06ZM10.41,35.42h7.8V6.92h10.1V0H.31v6.9h10.1Zm28.1,0h7.8V8.25h.1l9,27.15h6l9.3-27.15h.1V35.4h7.8V0H66.76l-8.2,23.1h-.1L50.31,0H38.51ZM152.43,55.67a15.07,15.07,0,0,0-4.52-5.52,18.57,18.57,0,0,0-6.68-3.08,33.54,33.54,0,0,0-8.07-1h-11.7v35.4h12.75a24.58,24.58,0,0,0,7.55-1.15A19.34,19.34,0,0,0,148.11,77a16.27,16.27,0,0,0,4.37-5.5,16.91,16.91,0,0,0,1.63-7.58A18.5,18.5,0,0,0,152.43,55.67ZM145,68.6A8.8,8.8,0,0,1,142.36,72a10.7,10.7,0,0,1-4,1.82,21.57,21.57,0,0,1-5,.55h-4.05v-21h4.6a17,17,0,0,1,4.67.63,11.66,11.66,0,0,1,3.88,1.87A9.14,9.14,0,0,1,145,59a9.87,9.87,0,0,1,1,4.52A11.89,11.89,0,0,1,145,68.6Zm44.63-.13a8,8,0,0,0-1.58-2.62A8.38,8.38,0,0,0,185.63,64a10.31,10.31,0,0,0-3.17-1v-.1a9.22,9.22,0,0,0,4.42-2.82,7.43,7.43,0,0,0,1.68-5,8.42,8.42,0,0,0-1.15-4.65,8.09,8.09,0,0,0-3-2.72,12.56,12.56,0,0,0-4.18-1.3,32.84,32.84,0,0,0-4.62-.33h-13.2v35.4h14.5a22.41,22.41,0,0,0,4.72-.5,13.53,13.53,0,0,0,4.28-1.65,9.42,9.42,0,0,0,3.1-3,8.52,8.52,0,0,0,1.2-4.68A9.39,9.39,0,0,0,189.66,68.47ZM170.21,52.72h5.3a10,10,0,0,1,1.85.18,6.18,6.18,0,0,1,1.7.57,3.39,3.39,0,0,1,1.22,1.13,3.22,3.22,0,0,1,.48,1.82,3.63,3.63,0,0,1-.43,1.8,3.4,3.4,0,0,1-1.12,1.2,4.92,4.92,0,0,1-1.58.65,7.51,7.51,0,0,1-1.77.2h-5.65Zm11.72,20a3.9,3.9,0,0,1-1.22,1.3,4.64,4.64,0,0,1-1.68.7,8.18,8.18,0,0,1-1.82.2h-7v-8h5.9a15.35,15.35,0,0,1,2,.15,8.47,8.47,0,0,1,2.05.55,4,4,0,0,1,1.57,1.18,3.11,3.11,0,0,1,.63,2A3.71,3.71,0,0,1,181.93,72.72Z" />
  </symbol>
</svg>